<mxfile host="Electron" agent="Mozilla/5.0 (Windows NT 10.0; Win64; x64) AppleWebKit/537.36 (KHTML, like Gecko) draw.io/27.0.9 Chrome/134.0.6998.205 Electron/35.4.0 Safari/537.36" version="27.0.9">
  <diagram name="Page-1" id="CMOv8pjXDxjQAOF9YQjk">
    <mxGraphModel dx="2528" dy="989" grid="1" gridSize="10" guides="1" tooltips="1" connect="1" arrows="1" fold="1" page="1" pageScale="1" pageWidth="850" pageHeight="1100" math="0" shadow="0">
      <root>
        <mxCell id="0" />
        <mxCell id="1" parent="0" />
        <mxCell id="Dh-IFWAiiyUwbAjQ1QD_-43" value="" style="rounded=1;whiteSpace=wrap;html=1;fillColor=none;dashed=1;" parent="1" vertex="1">
          <mxGeometry x="-190" y="110" width="810" height="570" as="geometry" />
        </mxCell>
        <mxCell id="Dh-IFWAiiyUwbAjQ1QD_-46" value="" style="rounded=1;whiteSpace=wrap;html=1;fillColor=none;dashed=1;" parent="1" vertex="1">
          <mxGeometry x="662.5" y="110" width="607.5" height="570" as="geometry" />
        </mxCell>
        <mxCell id="Dh-IFWAiiyUwbAjQ1QD_-1" value="&lt;font style=&quot;font-size: 36px;&quot;&gt;Integration Model&lt;/font&gt;" style="text;html=1;align=center;verticalAlign=middle;whiteSpace=wrap;rounded=0;fontStyle=1" parent="1" vertex="1">
          <mxGeometry x="10" y="10" width="350" height="30" as="geometry" />
        </mxCell>
        <mxCell id="Dh-IFWAiiyUwbAjQ1QD_-2" value="&lt;font style=&quot;font-size: 14px;&quot;&gt;(how tables are related)&lt;/font&gt;" style="text;html=1;align=center;verticalAlign=middle;whiteSpace=wrap;rounded=0;" parent="1" vertex="1">
          <mxGeometry x="340" y="10" width="150" height="30" as="geometry" />
        </mxCell>
        <mxCell id="Dh-IFWAiiyUwbAjQ1QD_-11" value="crm_cust_info" style="swimlane;fontStyle=0;childLayout=stackLayout;horizontal=1;startSize=30;horizontalStack=0;resizeParent=1;resizeParentMax=0;resizeLast=0;collapsible=1;marginBottom=0;whiteSpace=wrap;html=1;rounded=1;fillColor=#dae8fc;strokeColor=#6c8ebf;fontSize=26;" parent="1" vertex="1">
          <mxGeometry x="297.5" y="400" width="272.5" height="110" as="geometry" />
        </mxCell>
        <mxCell id="Dh-IFWAiiyUwbAjQ1QD_-12" value="cst_id" style="text;strokeColor=none;fillColor=none;align=left;verticalAlign=middle;spacingLeft=4;spacingRight=4;overflow=hidden;points=[[0,0.5],[1,0.5]];portConstraint=eastwest;rotatable=0;whiteSpace=wrap;html=1;fontSize=26;" parent="Dh-IFWAiiyUwbAjQ1QD_-11" vertex="1">
          <mxGeometry y="30" width="272.5" height="40" as="geometry" />
        </mxCell>
        <mxCell id="Dh-IFWAiiyUwbAjQ1QD_-32" value="cst_key" style="text;strokeColor=none;fillColor=none;align=left;verticalAlign=middle;spacingLeft=4;spacingRight=4;overflow=hidden;points=[[0,0.5],[1,0.5]];portConstraint=eastwest;rotatable=0;whiteSpace=wrap;html=1;fontSize=26;" parent="Dh-IFWAiiyUwbAjQ1QD_-11" vertex="1">
          <mxGeometry y="70" width="272.5" height="40" as="geometry" />
        </mxCell>
        <mxCell id="Dh-IFWAiiyUwbAjQ1QD_-16" value="&lt;font style=&quot;font-size: 20px;&quot;&gt;Customer Information&lt;/font&gt;" style="text;html=1;align=center;verticalAlign=middle;whiteSpace=wrap;rounded=0;" parent="1" vertex="1">
          <mxGeometry x="332.5" y="370" width="200" height="30" as="geometry" />
        </mxCell>
        <mxCell id="Dh-IFWAiiyUwbAjQ1QD_-17" value="crm_prd_info" style="swimlane;fontStyle=0;childLayout=stackLayout;horizontal=1;startSize=30;horizontalStack=0;resizeParent=1;resizeParentMax=0;resizeLast=0;collapsible=1;marginBottom=0;whiteSpace=wrap;html=1;rounded=1;fillColor=#dae8fc;strokeColor=#6c8ebf;fontSize=26;" parent="1" vertex="1">
          <mxGeometry x="297.5" y="240" width="272.5" height="70" as="geometry" />
        </mxCell>
        <mxCell id="Dh-IFWAiiyUwbAjQ1QD_-18" value="prd_key" style="text;strokeColor=none;fillColor=none;align=left;verticalAlign=middle;spacingLeft=4;spacingRight=4;overflow=hidden;points=[[0,0.5],[1,0.5]];portConstraint=eastwest;rotatable=0;whiteSpace=wrap;html=1;fontSize=26;rounded=0;" parent="Dh-IFWAiiyUwbAjQ1QD_-17" vertex="1">
          <mxGeometry y="30" width="272.5" height="40" as="geometry" />
        </mxCell>
        <mxCell id="Dh-IFWAiiyUwbAjQ1QD_-19" value="&lt;font style=&quot;font-size: 20px;&quot;&gt;Current &amp;amp; History Product Information&lt;/font&gt;" style="text;html=1;align=center;verticalAlign=middle;whiteSpace=wrap;rounded=0;" parent="1" vertex="1">
          <mxGeometry x="260" y="210" width="345" height="30" as="geometry" />
        </mxCell>
        <mxCell id="Dh-IFWAiiyUwbAjQ1QD_-20" value="crm_sales_details" style="swimlane;fontStyle=0;childLayout=stackLayout;horizontal=1;startSize=30;horizontalStack=0;resizeParent=1;resizeParentMax=0;resizeLast=0;collapsible=1;marginBottom=0;whiteSpace=wrap;html=1;rounded=1;fillColor=#dae8fc;strokeColor=#6c8ebf;fontSize=26;" parent="1" vertex="1">
          <mxGeometry x="-140" y="290" width="277.5" height="110" as="geometry" />
        </mxCell>
        <mxCell id="Dh-IFWAiiyUwbAjQ1QD_-21" value="prd_key" style="text;strokeColor=none;fillColor=none;align=left;verticalAlign=middle;spacingLeft=4;spacingRight=4;overflow=hidden;points=[[0,0.5],[1,0.5]];portConstraint=eastwest;rotatable=0;whiteSpace=wrap;html=1;fontSize=26;" parent="Dh-IFWAiiyUwbAjQ1QD_-20" vertex="1">
          <mxGeometry y="30" width="277.5" height="40" as="geometry" />
        </mxCell>
        <mxCell id="Dh-IFWAiiyUwbAjQ1QD_-25" value="cst_id" style="text;strokeColor=none;fillColor=none;align=left;verticalAlign=middle;spacingLeft=4;spacingRight=4;overflow=hidden;points=[[0,0.5],[1,0.5]];portConstraint=eastwest;rotatable=0;whiteSpace=wrap;html=1;fontSize=26;" parent="Dh-IFWAiiyUwbAjQ1QD_-20" vertex="1">
          <mxGeometry y="70" width="277.5" height="40" as="geometry" />
        </mxCell>
        <mxCell id="Dh-IFWAiiyUwbAjQ1QD_-22" value="&lt;font style=&quot;font-size: 20px;&quot;&gt;Transaction Records about Sales &amp;amp; Orders&lt;/font&gt;" style="text;html=1;align=center;verticalAlign=middle;whiteSpace=wrap;rounded=0;" parent="1" vertex="1">
          <mxGeometry x="-170" y="250" width="345" height="30" as="geometry" />
        </mxCell>
        <mxCell id="Dh-IFWAiiyUwbAjQ1QD_-27" style="edgeStyle=orthogonalEdgeStyle;rounded=0;orthogonalLoop=1;jettySize=auto;html=1;entryX=0;entryY=0.25;entryDx=0;entryDy=0;entryPerimeter=0;" parent="1" source="Dh-IFWAiiyUwbAjQ1QD_-25" target="Dh-IFWAiiyUwbAjQ1QD_-12" edge="1">
          <mxGeometry relative="1" as="geometry" />
        </mxCell>
        <mxCell id="Dh-IFWAiiyUwbAjQ1QD_-28" style="edgeStyle=orthogonalEdgeStyle;rounded=0;orthogonalLoop=1;jettySize=auto;html=1;entryX=0.004;entryY=0.275;entryDx=0;entryDy=0;entryPerimeter=0;" parent="1" source="Dh-IFWAiiyUwbAjQ1QD_-21" target="Dh-IFWAiiyUwbAjQ1QD_-18" edge="1">
          <mxGeometry relative="1" as="geometry" />
        </mxCell>
        <mxCell id="Dh-IFWAiiyUwbAjQ1QD_-29" value="erp_cust_az12" style="swimlane;fontStyle=0;childLayout=stackLayout;horizontal=1;startSize=30;horizontalStack=0;resizeParent=1;resizeParentMax=0;resizeLast=0;collapsible=1;marginBottom=0;whiteSpace=wrap;html=1;rounded=1;fillColor=#fff2cc;strokeColor=#d6b656;fontSize=26;" parent="1" vertex="1">
          <mxGeometry x="837.5" y="365" width="272.5" height="70" as="geometry" />
        </mxCell>
        <mxCell id="Dh-IFWAiiyUwbAjQ1QD_-30" value="cid" style="text;strokeColor=none;fillColor=none;align=left;verticalAlign=middle;spacingLeft=4;spacingRight=4;overflow=hidden;points=[[0,0.5],[1,0.5]];portConstraint=eastwest;rotatable=0;whiteSpace=wrap;html=1;fontSize=26;" parent="Dh-IFWAiiyUwbAjQ1QD_-29" vertex="1">
          <mxGeometry y="30" width="272.5" height="40" as="geometry" />
        </mxCell>
        <mxCell id="Dh-IFWAiiyUwbAjQ1QD_-31" value="&lt;font style=&quot;font-size: 20px;&quot;&gt;Extra Customer Information (Birthdate)&lt;/font&gt;" style="text;html=1;align=center;verticalAlign=middle;whiteSpace=wrap;rounded=0;fillColor=none;strokeColor=none;" parent="1" vertex="1">
          <mxGeometry x="792.5" y="335" width="360" height="30" as="geometry" />
        </mxCell>
        <mxCell id="Dh-IFWAiiyUwbAjQ1QD_-33" style="edgeStyle=orthogonalEdgeStyle;rounded=0;orthogonalLoop=1;jettySize=auto;html=1;entryX=0.991;entryY=0.3;entryDx=0;entryDy=0;entryPerimeter=0;" parent="1" source="Dh-IFWAiiyUwbAjQ1QD_-30" target="Dh-IFWAiiyUwbAjQ1QD_-32" edge="1">
          <mxGeometry relative="1" as="geometry" />
        </mxCell>
        <mxCell id="Dh-IFWAiiyUwbAjQ1QD_-34" value="erp_loc_a101" style="swimlane;fontStyle=0;childLayout=stackLayout;horizontal=1;startSize=30;horizontalStack=0;resizeParent=1;resizeParentMax=0;resizeLast=0;collapsible=1;marginBottom=0;whiteSpace=wrap;html=1;rounded=1;fillColor=#fff2cc;strokeColor=#d6b656;fontSize=26;" parent="1" vertex="1">
          <mxGeometry x="837.5" y="530" width="272.5" height="70" as="geometry" />
        </mxCell>
        <mxCell id="Dh-IFWAiiyUwbAjQ1QD_-35" value="cid" style="text;strokeColor=none;fillColor=none;align=left;verticalAlign=middle;spacingLeft=4;spacingRight=4;overflow=hidden;points=[[0,0.5],[1,0.5]];portConstraint=eastwest;rotatable=0;whiteSpace=wrap;html=1;fontSize=26;" parent="Dh-IFWAiiyUwbAjQ1QD_-34" vertex="1">
          <mxGeometry y="30" width="272.5" height="40" as="geometry" />
        </mxCell>
        <mxCell id="Dh-IFWAiiyUwbAjQ1QD_-36" value="&lt;font style=&quot;font-size: 20px;&quot;&gt;Location of Customers (Country)&lt;/font&gt;" style="text;html=1;align=center;verticalAlign=middle;whiteSpace=wrap;rounded=0;fillColor=none;strokeColor=none;" parent="1" vertex="1">
          <mxGeometry x="792.5" y="500" width="360" height="30" as="geometry" />
        </mxCell>
        <mxCell id="Dh-IFWAiiyUwbAjQ1QD_-38" style="edgeStyle=orthogonalEdgeStyle;rounded=0;orthogonalLoop=1;jettySize=auto;html=1;entryX=1.009;entryY=0.25;entryDx=0;entryDy=0;entryPerimeter=0;" parent="1" source="Dh-IFWAiiyUwbAjQ1QD_-35" target="Dh-IFWAiiyUwbAjQ1QD_-32" edge="1">
          <mxGeometry relative="1" as="geometry" />
        </mxCell>
        <mxCell id="Dh-IFWAiiyUwbAjQ1QD_-39" value="erp_px_cat_g1v2" style="swimlane;fontStyle=0;childLayout=stackLayout;horizontal=1;startSize=30;horizontalStack=0;resizeParent=1;resizeParentMax=0;resizeLast=0;collapsible=1;marginBottom=0;whiteSpace=wrap;html=1;rounded=1;fillColor=#fff2cc;strokeColor=#d6b656;fontSize=26;" parent="1" vertex="1">
          <mxGeometry x="837.5" y="210" width="272.5" height="70" as="geometry" />
        </mxCell>
        <mxCell id="Dh-IFWAiiyUwbAjQ1QD_-40" value="id" style="text;strokeColor=none;fillColor=none;align=left;verticalAlign=middle;spacingLeft=4;spacingRight=4;overflow=hidden;points=[[0,0.5],[1,0.5]];portConstraint=eastwest;rotatable=0;whiteSpace=wrap;html=1;fontSize=26;" parent="Dh-IFWAiiyUwbAjQ1QD_-39" vertex="1">
          <mxGeometry y="30" width="272.5" height="40" as="geometry" />
        </mxCell>
        <mxCell id="Dh-IFWAiiyUwbAjQ1QD_-41" value="&lt;font style=&quot;font-size: 20px;&quot;&gt;Product Categories&lt;/font&gt;" style="text;html=1;align=center;verticalAlign=middle;whiteSpace=wrap;rounded=0;fillColor=none;strokeColor=none;" parent="1" vertex="1">
          <mxGeometry x="792.5" y="180" width="360" height="30" as="geometry" />
        </mxCell>
        <mxCell id="Dh-IFWAiiyUwbAjQ1QD_-42" style="edgeStyle=orthogonalEdgeStyle;rounded=0;orthogonalLoop=1;jettySize=auto;html=1;entryX=1.009;entryY=0.25;entryDx=0;entryDy=0;entryPerimeter=0;" parent="1" source="Dh-IFWAiiyUwbAjQ1QD_-40" target="Dh-IFWAiiyUwbAjQ1QD_-18" edge="1">
          <mxGeometry relative="1" as="geometry" />
        </mxCell>
        <mxCell id="Dh-IFWAiiyUwbAjQ1QD_-44" value="&lt;font style=&quot;font-size: 35px;&quot;&gt;CRM&lt;/font&gt;" style="text;html=1;align=center;verticalAlign=middle;whiteSpace=wrap;rounded=1;fontStyle=1;fillColor=#dae8fc;strokeColor=#6c8ebf;" parent="1" vertex="1">
          <mxGeometry x="118.75" y="80" width="192.5" height="50" as="geometry" />
        </mxCell>
        <mxCell id="Dh-IFWAiiyUwbAjQ1QD_-45" value="&lt;font style=&quot;font-size: 35px;&quot;&gt;ERP&lt;/font&gt;" style="text;html=1;align=center;verticalAlign=middle;whiteSpace=wrap;rounded=1;fontStyle=1;fillColor=#fff2cc;strokeColor=#d6b656;" parent="1" vertex="1">
          <mxGeometry x="870" y="80" width="192.5" height="50" as="geometry" />
        </mxCell>
        <mxCell id="4Rkfgrksq3KifMJwRSzQ-1" value="PRODUCT" style="text;html=1;strokeColor=#b85450;fillColor=#f8cecc;align=center;verticalAlign=middle;whiteSpace=wrap;overflow=hidden;fontSize=20;fontStyle=1" vertex="1" parent="1">
          <mxGeometry x="297.5" y="310" width="272.5" height="30" as="geometry" />
        </mxCell>
        <mxCell id="4Rkfgrksq3KifMJwRSzQ-2" value="PRODUCT" style="text;html=1;strokeColor=#b85450;fillColor=#f8cecc;align=center;verticalAlign=middle;whiteSpace=wrap;overflow=hidden;fontSize=20;fontStyle=1" vertex="1" parent="1">
          <mxGeometry x="837.5" y="280" width="272.5" height="30" as="geometry" />
        </mxCell>
        <mxCell id="4Rkfgrksq3KifMJwRSzQ-3" value="CUSTOMER" style="text;html=1;strokeColor=#82b366;fillColor=#d5e8d4;align=center;verticalAlign=middle;whiteSpace=wrap;overflow=hidden;fontSize=20;fontStyle=1" vertex="1" parent="1">
          <mxGeometry x="296.25" y="510" width="272.5" height="30" as="geometry" />
        </mxCell>
        <mxCell id="4Rkfgrksq3KifMJwRSzQ-4" value="CUSTOMER" style="text;html=1;strokeColor=#82b366;fillColor=#d5e8d4;align=center;verticalAlign=middle;whiteSpace=wrap;overflow=hidden;fontSize=20;fontStyle=1" vertex="1" parent="1">
          <mxGeometry x="837.5" y="435" width="272.5" height="30" as="geometry" />
        </mxCell>
        <mxCell id="4Rkfgrksq3KifMJwRSzQ-5" value="CUSTOMER" style="text;html=1;strokeColor=#82b366;fillColor=#d5e8d4;align=center;verticalAlign=middle;whiteSpace=wrap;overflow=hidden;fontSize=20;fontStyle=1" vertex="1" parent="1">
          <mxGeometry x="837.5" y="600" width="272.5" height="30" as="geometry" />
        </mxCell>
        <mxCell id="4Rkfgrksq3KifMJwRSzQ-7" value="SALES" style="text;html=1;strokeColor=#9673a6;fillColor=#e1d5e7;align=center;verticalAlign=middle;whiteSpace=wrap;overflow=hidden;fontSize=20;fontStyle=1" vertex="1" parent="1">
          <mxGeometry x="-140" y="400" width="277.5" height="30" as="geometry" />
        </mxCell>
      </root>
    </mxGraphModel>
  </diagram>
</mxfile>
